<svg xmlns="http://www.w3.org/2000/svg" viewBox="0 0 717.58 744.35"><title>wave2</title><g id="Calque_2" data-name="Calque 2"><g id="Calque_1-2" data-name="Calque 1"><path d="M593.9,707.44q-21.14-15.36-42.2-30.81l-20.28-14.88c-3-2.24-6-4.61-9-6.92-4.26-3.3-8.48-6.66-12.62-10.11a290.83,290.83,0,0,1-22.46-21A363.81,363.81,0,0,1,418.7,523.51c-2.9-6.24-5.79-12.51-8.33-18.91l-4.77-12c-2.31-5.84-4.71-11.64-6.83-17.55l-8.55-23.85c-.87-2.44-1.62-4.93-2.42-7.4l-4.71-14.4c-2.08-6.38-3.9-12.83-5.78-19.27-1.82-6.26-3.59-12.52-5.24-18.83-3.58-13.6-7-27.23-10.24-40.92q-5.13-21.91-10.46-43.8c-1.83-7.49-3.89-14.91-6-22.31-2-6.3-3.93-12.61-6.31-18.76-1.32-3.4-2.55-6.85-4-10.21q-2.35-5.49-4.7-11l-5.12-10.58c-1.4-2.9-3-5.68-4.57-8.49s-3.19-5.81-5-8.6q-3.1-4.83-6.2-9.65l-8.19-11.41c-1.18-1.65-2.52-3.2-3.78-4.79l-4.92-6.23c-1.25-1.58-2.63-3.06-3.93-4.58-1.71-2-3.41-4-5.12-6-1.34-1.57-2.83-3-4.24-4.54-1.57-1.68-3.14-3.35-4.7-5l-8-7.82c-2.15-2.09-4.43-4-6.67-6s-4.48-4-6.83-5.88l-5.67-4.52c-1.14-.91-2.25-1.88-3.43-2.73l-9.78-7.1c-2.43-1.76-4.94-3.4-7.42-5.08-5.56-3.77-11.2-7.37-16.83-11-11.64-7.13-23.29-14.31-35.46-20.51C161.61,87.2,148.58,81,135.86,74.13c-8.74-4.68-17.37-9.54-26-14.41a5.28,5.28,0,0,1-2.3-3.53,14.48,14.48,0,0,1-.09-6.25,11,11,0,0,1,2.18-5.12c.73-.85,2.07-1.82,3.24-1.16,7.08,4,14.12,8.05,21.28,11.89,3.41,1.82,6.78,3.72,10.22,5.47l10.84,5.5c5.91,3,11.87,5.89,17.78,8.89,2.84,1.45,5.68,2.9,8.48,4.42,3,1.67,6.16,3.26,9.17,5,12.21,7.15,24.41,14.36,36.14,22.29l10.2,6.91c3.22,2.18,6.32,4.58,9.47,6.86,2.61,1.89,5.1,3.94,7.63,6s4.89,3.91,7.25,6c2.71,2.39,5.56,4.68,8.16,7.2,3,2.94,6,5.89,9.05,8.82,2.54,2.48,4.88,5.18,7.3,7.77,2.08,2.22,4.08,4.46,6.05,6.77,2.17,2.52,4.42,5,6.48,7.6l8,10.08c2.22,2.82,4.21,5.85,6.3,8.76,1.79,2.5,3.47,5,5.13,7.63,1.82,2.84,3.81,5.63,5.47,8.57q3.24,5.74,6.49,11.49c1.63,2.9,2.95,6,4.4,9s2.75,5.69,4,8.59c1.44,3.38,3,6.72,4.33,10.14s2.77,6.82,4,10.28c2.32,6.64,4.68,13.29,6.63,20.06,8,27.87,14,56.29,20.89,84.45,2.38,9.71,5,19.37,7.5,29,1,3.63,2.06,7.22,3.11,10.82q2.16,7.41,4.32,14.82,3.66,11.24,7.34,22.45c2,6.21,4.33,12.34,6.53,18.49,2,5.67,4.06,11.33,6.28,16.93,2.94,7.43,5.86,14.86,8.82,22.29,1.66,4.16,3.57,8.24,5.4,12.32-.12-.29-.26-.58-.39-.87a383.52,383.52,0,0,0,26.34,48.74l-.15-.23c.07.11.14.21.2.32l.06.08a357.21,357.21,0,0,0,41.07,52l-.54-.56c7.09,7.38,14.47,14.47,22.25,21.12,3.79,3.23,7.67,6.34,11.58,9.41s7.81,6.21,11.83,9.14q9.74,7.11,19.44,14.27,20.49,15,41.06,30l2.08,1.52c1.24.9,1.71,2.84,1.93,4.26a15.5,15.5,0,0,1-.42,6.39c-.5,1.81-2,5.21-4.2,5.21A2.61,2.61,0,0,1,593.9,707.44Z"/><path d="M670.69,738.29c-.29-8.16-1.22-16.31-2-24.43-.32-3-.64-6.09-1-9.13-.17-1.64-.52-3.29-.78-4.93-.23-1.48-.46-2.95-.7-4.43-.71-3.07-1.34-6.17-2.18-9.2q-1.49-5.35-3-10.73c-1.26-3.77-2.54-7.53-3.8-11.3-.67-2-1.58-3.93-2.36-5.88s-1.53-3.78-2.28-5.67q-2-4.35-4.07-8.7c-1.16-2.48-2.47-4.88-3.77-7.3s-2.51-4.84-3.94-7.17q-2.67-4.32-5.33-8.65l-6.93-10c-1.09-1.56-2.36-3-3.53-4.53l-4.1-5.26c-1.1-1.41-2.33-2.73-3.49-4.08L613,591.78c-2.6-3-5.42-5.92-8.12-8.88-3.54-3.64-7-7.31-10.64-10.9q-6.25-6.22-12.6-12.36c-7.5-7.29-15.27-14.33-22.6-21.79-4.28-4.36-8.52-8.74-12.67-13.22-3.32-3.57-6.62-7.21-9.74-11-3.79-4.57-7.55-9.14-11.21-13.81-3.31-4.22-6.48-8.53-9.66-12.85-1.84-2.5-3.54-5.12-5.3-7.69-1.47-2.14-2.85-4.35-4.24-6.55s-2.63-4.13-3.87-6.26-2.74-4.52-4-6.86l-4.22-8c-1.4-2.66-2.6-5.46-3.9-8.18-2.24-4.71-4.22-9.57-6.08-14.43-.93-2.45-1.93-4.88-2.78-7.36-1-2.88-2-5.76-2.95-8.65-1.06-3.1-1.91-6.3-2.85-9.44-.76-2.53-1.41-5.1-2.09-7.65-2.87-10.66-5.21-21.48-7.21-32.34-.57-3.07-1-6.17-1.38-9.27a60.13,60.13,0,0,1-.25-12.07,12.53,12.53,0,0,1,1.8-5.68c.68-1.05,1.77-2.24,3.16-2.1s2.2,1.55,2.64,2.71a13.54,13.54,0,0,1,.6,5.93c0,.1,0,.2,0,.3l0,1c0,1.07.11,2.14.19,3.21.57,4.48,1.32,8.92,2.14,13.37,1.48,7.11,3.06,14.18,4.79,21.23,1.64,6.72,3.6,13.34,5.59,20,1.6,4.69,3.2,9.36,5,14s3.77,9.36,5.76,14q2.06,4.32,4.12,8.66c1.4,2.93,3.05,5.77,4.57,8.64s3.27,5.62,4.9,8.41,3.37,5.32,5.07,8c3.09,4.49,6.18,9,9.42,13.35,3.43,4.64,7,9.17,10.53,13.71,3.1,4,6.4,7.77,9.71,11.54,3.9,4.44,7.88,8.78,11.9,13.11l.09.1c7.33,7.47,14.82,14.77,22.39,22,7.91,7.55,15.86,15.08,23.46,23,4.25,4.39,8.46,8.79,12.58,13.3,3.78,4.13,7.4,8.39,11,12.64,1.71,2,3.25,4.15,4.86,6.22,1.34,1.72,2.7,3.41,3.94,5.2l5.89,8.48c1.53,2.2,2.86,4.56,4.26,6.85,1.19,1.92,2.41,3.81,3.48,5.81l5,9.2c1.14,2.12,2.07,4.37,3.09,6.55s2.27,4.63,3.23,7l4,9.84c.83,2.08,1.5,4.21,2.22,6.34.9,2.68,1.92,5.35,2.68,8.08l2.7,9.74c.49,1.75.89,3.51,1.31,5.28.57,2.43,1.26,4.86,1.65,7.33l1.41,8.91c.35,2.24.5,4.53.75,6.78,1,9.86,2.22,19.75,2.59,29.66a16.47,16.47,0,0,1-.92,6.34c-.53,1.4-1.37,3.06-2.77,3.77a2.63,2.63,0,0,1-1.19.32C671.76,744.35,670.76,740.17,670.69,738.29Z"/><path d="M469.21,305.79c-1.39-.15-2.2-1.54-2.65-2.71a13,13,0,0,1-.59-5.93c.14-1.51.27-3,.38-4.54.31-6.46.39-12.93.46-19.4a14.14,14.14,0,0,1,1.39-6.09c.59-1.21,1.55-2.69,3-3s2.34.72,2.93,1.8a11,11,0,0,1,1.07,5.46c-.09,8.88-.15,17.77-1,26.61a12.92,12.92,0,0,1-1.81,5.68c-.64,1-1.64,2.11-2.92,2.11Z"/><path d="M706,726.52c-2.64-.27-4.21-2.94-5-5.17A24.94,24.94,0,0,1,699.82,710c.22-2.19.54-4.37.82-6.54.33-2.57.58-5.11.78-7.68s.1-4.93.11-7.4c-.1-2-.24-4.07-.43-6.12-.31-1.9-.61-3.8-.92-5.71-1-4.8-2.06-9.58-3.28-14.33-1.33-5.23-2.85-10.38-4.43-15.53s-3.24-10.26-5.19-15.27c-2-5.18-4.15-10.29-6.41-15.37-3.16-6.28-6.52-12.4-10.09-18.45-5.81-8.84-12-17.37-18.35-25.84S639.84,555,633.54,546.53l-.78-1c-2-2.66-2.69-6.12-2.9-9.37a29.51,29.51,0,0,1,1.75-12.1c1-2.67,2.61-5.83,5.29-7.19a4.63,4.63,0,0,1,6,1.58q9.63,12.86,19.23,25.71c6.75,9,13.35,18.08,19.5,27.52a199.13,199.13,0,0,1,16.26,31.74,282.16,282.16,0,0,1,10.79,31.35A292.49,292.49,0,0,1,716.46,669a103.64,103.64,0,0,1,1.07,19,174.6,174.6,0,0,1-1.4,18.43c-.23,1.75-.47,3.49-.64,5.24A24.71,24.71,0,0,1,712,722.51c-1.22,1.89-3.14,4-5.58,4A3.31,3.31,0,0,1,706,726.52Z"/><path d="M288.54,635.66a98.61,98.61,0,0,1-12.07-11.22c-1.91-2-3.79-4.05-5.61-6.16s-3.63-4.43-5.38-6.73c-3.16-4.14-6.12-8.5-8.87-12.94l-5.07-8.19c-1.5-2.44-2.79-5-4.18-7.57-2.77-5-5.22-10.18-7.73-15.34-1.08-2.24-2-4.56-2.95-6.86s-2.08-4.7-2.91-7.11l-3.34-9.69c-.89-2.6-1.55-5.28-2.29-7.93-1.46-5.28-2.77-10.63-3.78-16-2.06-11-4-22.07-5.07-33.23-1.08-10.91-2-21.82-2.39-32.78-.4-10-.62-20-1-30-.39-9.62-1.08-19.19-2-28.78-.63-4.95-1.33-9.86-2.13-14.78-.69-3.33-1.38-6.65-2.21-10-.87-3.47-1.86-6.88-2.87-10.31-1.77-5.25-3.61-10.47-5.64-15.63-2.18-5.55-4.47-11-6.82-16.51-3.47-7.6-7-15.17-11.13-22.46-4.64-8.26-9.64-16.29-14.64-24.33-1.13-1.82-1.32-4.39-1.27-6.46a17.23,17.23,0,0,1,1.64-7.2c.7-1.43,1.84-3.18,3.53-3.52s2.69.88,3.46,2.13c5.94,9.54,11.87,19.06,17.16,29s9.73,20,14,30.34c2.07,5,4,10.12,5.88,15.22,1,2.66,1.88,5.38,2.69,8.1.73,2.46,1.55,4.91,2.18,7.4,1.41,5.66,2.84,11.32,3.77,17.07s1.78,11.51,2.34,17.31q1.58,16.31,2.11,32.68c.34,11.12.62,22.25,1.22,33.36.45,8.26,1.18,16.49,2,24.72.65,5,1.29,10.07,2.07,15.08s1.68,10,2.62,15c.35,1.59.71,3.19,1.06,4.79s.64,3.2,1.07,4.77l2.7,9.73,1.77,5.14c.6,1.73,1.1,3.55,1.81,5.25q2.29,5.55,4.6,11.09,2.22,4.56,4.43,9.13c1.17,2.4,2.44,4.71,3.73,7.05,1.44,2.62,2.81,5.32,4.39,7.87q2.75,4.44,5.5,8.88l4.38,6.39c1.35,2,2.82,3.84,4.27,5.73a131.05,131.05,0,0,0,8.89,10.23,103.66,103.66,0,0,0,11.13,10.24c1.46,1.11,2,3.34,2.28,5a18.33,18.33,0,0,1-.5,7.55c-.58,2.09-2.43,6.18-5,6.18A2.92,2.92,0,0,1,288.54,635.66Z"/><path d="M507.59,722.09l-20-6.65c-5.22-1.74-10.5-3.37-15.67-5.25s-10.48-3.6-15.56-5.79c-2.61-1.13-5.28-2.17-7.84-3.39l-8.84-4.2c-1.91-.91-3.76-1.88-5.62-2.88-2.51-1.35-5.11-2.61-7.56-4.07-4.72-2.8-9.48-5.51-14.07-8.51-2.47-1.61-5-3.14-7.42-4.85l-7.72-5.5c-4-2.87-7.93-5.9-11.78-9a244,244,0,0,1-25-22.22c-3.75-3.93-7.57-7.83-11-12.07s-6.84-8.66-10-13.18c-6.41-9.08-12.71-18.33-18.35-27.92s-10.95-19.34-15.92-29.3c-9.73-19.49-16.63-40.2-24-60.63-3.66-10.09-7.45-20.12-11.09-30.22q-2.7-7.51-5.17-15.12c-.92-2.87-1.83-5.74-2.71-8.61-.31-1-.62-2.05-.89-3.09a25.48,25.48,0,0,1-.83-8.39v0a15.45,15.45,0,0,1,2.14-6.71c.8-1.23,2.09-2.65,3.73-2.48s2.6,1.83,3.13,3.2a12.4,12.4,0,0,1,.74,3.32c.46,1.83,1,3.64,1.6,5.46-.13-.4-.25-.79-.37-1.19,3.29,10.41,6.91,20.69,10.73,30.91,3.67,9.83,7.23,19.7,10.77,29.57,2.52,7,5,14.07,7.65,21q3.9,10.14,8.28,20.08c3.54,7.62,7.24,15.17,11.3,22.53,2.05,3.72,4.11,7.44,6.26,11.11,2.3,3.89,4.66,7.72,7.05,11.55,4.84,7.43,9.72,14.83,15,21.94,2.73,3.67,5.47,7.35,8.47,10.79,1.52,1.75,3,3.56,4.59,5.24l4.81,5.06,5.88,5.71c2,2,4.18,3.8,6.27,5.7,4.23,3.84,8.78,7.36,13.25,10.92,3.84,3,7.78,6,11.78,8.85,2.2,1.57,4.36,3.23,6.62,4.71l8.53,5.58.84.55c4.34,2.57,8.64,5.21,13.08,7.59l8.29,4.46c2.52,1.36,5.2,2.48,7.79,3.7,2,.95,4,1.88,6,2.75,2.5,1.08,5,2.31,7.54,3.24,4.91,1.79,9.81,3.67,14.78,5.33q17.06,5.7,34.14,11.35c1.58.52,2.36,2.76,2.73,4.17a17.37,17.37,0,0,1,.1,7.39c-.48,2.53-2.11,7.6-5.32,7.6A3.6,3.6,0,0,1,507.59,722.09Z"/><path d="M378.63,219.72c-1.55-.67-2.39-2.64-2.72-4.17-2.74-12.42-5.76-24.79-9.23-37-1-2.77-2-5.54-3.19-8.26a109.16,109.16,0,0,0-5.56-10c-3.38-5-6.88-9.85-10.65-14.56-3.65-4.55-7.58-8.83-11.61-13-6.79-6.68-13.71-13.27-21-19.43-3.77-3.18-7.53-6.35-11.47-9.31s-8.21-6-12.43-8.86l.71.44a52.45,52.45,0,0,0-6.47-3.7h-.29c-1.85-.17-2.89-1.91-3.55-3.44a14.63,14.63,0,0,1-.7-7c.28-2.62,1-5.58,2.81-7.62l0,0c.7-.8,1.88-1.82,3.06-1.57,2.93.62,5.56,2.47,8.07,4,2.24,1.41,4.42,2.9,6.57,4.44,4.54,3.25,9,6.61,13.34,10.08,4.2,3.34,8.18,7,12.19,10.57s7.87,7.21,11.66,10.94c4.23,4.17,8.23,8.5,12.16,12.94,3.63,4.1,6.86,8.54,10.1,13,1.61,2.21,3.21,4.49,4.63,6.84a107.18,107.18,0,0,1,6,10.91,110.26,110.26,0,0,1,6.61,19.2c2.45,9.95,5,19.88,7.18,29.88a18.39,18.39,0,0,1,.11,7.39,13,13,0,0,1-2.58,6,4,4,0,0,1-2.82,1.58A2.47,2.47,0,0,1,378.63,219.72Z"/><path d="M391.74,132.18c-.09-.12-.16-.25-.24-.37a141,141,0,0,0-8.75-11.72c-1.53-1.86-3.2-3.6-4.85-5.36a55.15,55.15,0,0,1-4.4-4.9,10.83,10.83,0,0,1-1.79-5.8,18.17,18.17,0,0,1,1.08-7.49c.62-1.66,1.61-3.62,3.27-4.46a2.87,2.87,0,0,1,3.7,1,53.9,53.9,0,0,0,4.4,4.91c1.73,1.84,3.46,3.68,5.07,5.62a136.12,136.12,0,0,1,9.87,13.54c1.15,1.79,1.31,4.41,1.27,6.46a17.31,17.31,0,0,1-1.64,7.21c-.7,1.42-1.84,3.17-3.53,3.51a2.64,2.64,0,0,1-.55.06C393.32,134.37,392.43,133.28,391.74,132.18Z"/><path d="M205,600.61c-1.68-.18-2.53-1.83-3.12-3.2q-8-18.46-15.75-37a190.45,190.45,0,0,1-6.93-19.07,148.47,148.47,0,0,1-3.54-15c-.81-4.17-1.57-8.27-2-12.5a84.34,84.34,0,0,1,.41-24,30.5,30.5,0,0,1,1.34-5c.59-1.65,1.62-3.62,3.27-4.46a2.89,2.89,0,0,1,3.7,1,10.47,10.47,0,0,1,1.79,5.8,18.74,18.74,0,0,1-.84,6.78l-.21,1.12c-.06.61-.12,1.21-.16,1.82-.05,1.08-.07,2.16-.07,3.25.07,2.2.21,4.39.42,6.59.57,4.95,1.55,9.81,2.51,14.7.76,3.27,1.59,6.53,2.56,9.75,3.31,10.33,7.76,20.26,12,30.24q4.86,11.5,9.82,23a14.51,14.51,0,0,1,.7,7,15.36,15.36,0,0,1-2.14,6.71c-.75,1.17-1.94,2.49-3.45,2.49Z"/><path d="M327.18,415.6c-2-.87-3.05-3.39-3.49-5.35-1.52-6.74-3.14-13.46-4.78-20.18-1.71-7.05-3.34-14.15-5.42-21.11-2.25-7-5.38-13.77-8.34-20.51-8.76-19.24-18-38.31-28.33-56.75-3-5.34-6-10.67-9.15-15.93-2.72-4.54-5.56-9-8.41-13.43-1.95-2.83-3.92-5.66-5.88-8.49-1.85-2.68-3.94-5.23-5.91-7.82-3.66-4.82-7.8-9.26-11.89-13.7-3.63-3.55-7.24-7.12-11.1-10.43-4.33-3.71-8.69-7.37-13.15-10.91-8.61-6.82-17.46-13.3-26.49-19.55q-8.94-6.18-18.16-12c-9.27-5.69-18.72-11-28.37-16-9.29-4.83-18.77-9.29-28.18-13.88-5-2.42-9.94-4.83-14.8-7.48s-9.64-5.61-14.34-8.62a242.65,242.65,0,0,1-25.4-18.93,139.56,139.56,0,0,1-12.15-11.43A148.26,148.26,0,0,1,32.86,90.84a154.75,154.75,0,0,1-9.58-14Q18.9,69.42,14.9,61.75A144.09,144.09,0,0,1,5.72,40.19C4.38,36.08,3.1,32,2,27.8a43.63,43.63,0,0,1-1.79-16A19.52,19.52,0,0,1,2.91,3.2C3.93,1.61,5.58-.2,7.68,0s3.34,2.33,4,4.1a17.84,17.84,0,0,1,1,6.5,0,0,0,0,0,0,0c.71,3.25,1.59,6.43,2.54,9.62,1.67,5.08,3.51,10.05,5.57,15,1.88,3.94,3.81,7.82,5.82,11.7S30.85,54.38,33,58c2.75,4.18,5.6,8.25,8.6,12.26a133.52,133.52,0,0,0,9.73,11.14C63,93.16,76.27,103.08,90.18,112c4.36,2.68,8.79,5.24,13.33,7.62,4.78,2.51,9.67,4.83,14.53,7.17,9.67,4.66,19.3,9.38,28.82,14.34,9.9,5.16,19.52,10.85,28.95,16.84,8.82,5.6,17.52,11.5,25.95,17.67,17.78,13,35.44,26.82,49.59,43.85,14,16.85,25.63,35.6,36,54.87,5.46,10.14,10.81,20.32,15.92,30.65q7.42,15.07,14.16,30.48c2,4.67,4.07,9.36,5.84,14.14,2.51,6.83,4.08,14,5.82,21.06,2.13,8.62,4.23,17.24,6.18,25.9a23.24,23.24,0,0,1,.14,9.47,16.68,16.68,0,0,1-3.31,7.76,5.09,5.09,0,0,1-3.62,2A3.21,3.21,0,0,1,327.18,415.6Z"/><path d="M330.62,446.14a22.25,22.25,0,0,1-.9-17.66c.73-1.65,2.14-3.88,4.22-3.88s3.62,1.71,4.61,3.43a22.22,22.22,0,0,1,.9,17.65c-.73,1.65-2.14,3.89-4.22,3.89S331.61,447.85,330.62,446.14Z"/><path d="M611.26,519.11a6.93,6.93,0,0,1-2.37-2.44c-2.77-3.59-5.64-7.1-8.38-10.7a16.73,16.73,0,0,1-2.89-7.93,22,22,0,0,1,.64-9.45c.61-1.94,1.7-4.38,3.77-5.16s3.69.53,4.82,2c1.59,2.08,3.18,4.17,4.8,6.23,2.33,3,5.08,5.78,6.23,9.47a23.56,23.56,0,0,1,.87,9.66c-.29,2.51-1,5.36-2.68,7.3a4.11,4.11,0,0,1-3,1.51A3.53,3.53,0,0,1,611.26,519.11Z"/><path d="M514.37,545.08a150.84,150.84,0,0,1-25.64-20.8,137.2,137.2,0,0,1-11.08-13.55c-1.71-2.3-3.37-4.67-4.92-7.08s-3.07-4.49-4.43-6.83-2.77-4.77-4.17-7.16-2.47-4.77-3.7-7.15a173.79,173.79,0,0,1-7.2-16.28c-2.07-5.27-3.94-10.62-5.73-16-1.47-4.42-2.74-8.91-4.12-13.36a21,21,0,0,1-1.55-7.26c0-.7,0-1.42,0-2.13a17,17,0,0,1,1.4-6.89,6.76,6.76,0,0,1,3.22-3.67h0c3-1.36,5.38,2.49,6.31,4.65a67.45,67.45,0,0,1,2.3,7.27q1,3.27,2,6.53c1.26,3.93,2.6,7.82,4,11.71,1.05,2.83,2.13,5.67,3.31,8.45,1.37,3.23,2.83,6.39,4.32,9.55,1.71,3.33,3.44,6.63,5.32,9.86s3.91,6.42,6,9.59c3.94,5.57,7.93,11.05,12.35,16.25a150.73,150.73,0,0,0,14.38,13.05c3.39,2.55,6.84,5,10.38,7.35a10.67,10.67,0,0,1,3.89,5.93,23.4,23.4,0,0,1,.88,9.66c-.3,2.51-1,5.36-2.7,7.3a4.23,4.23,0,0,1-3.06,1.54A3.15,3.15,0,0,1,514.37,545.08Z"/></g></g></svg>