<svg xmlns="http://www.w3.org/2000/svg" viewBox="0 0 568.52 712.29"><title>Fichier 1</title><g id="Calque_2" data-name="Calque 2"><g id="Calque_1-2" data-name="Calque 1"><path d="M4.57,694.89C1,688.16.78,680.41.34,673c-.18-3.16-.22-6.34-.26-9.51-.11-8.34-.13-16.68.07-25,.18-7.5.67-15,1.25-22.43.65-8.44,1.8-16.8,2.92-25.2,1-8,2.9-15.84,4.51-23.72,1.39-6.81,3-13.52,4.66-20.28C17.13,532,21.18,517.36,26,502.9c9.55-28.64,22.61-56.14,37.3-82.47a333.58,333.58,0,0,1,24.94-37.81C97,371,106.46,360,116,349c9.35-10.77,19.09-21.25,29.26-31.24s20.5-19.68,30.65-29.63q16-15.67,31.42-31.91c10-10.51,19.78-21.22,29.68-31.81q16.26-17.37,32.35-34.86c9.22-10.48,18.48-20.91,27.26-31.75l7.76-9.57c2.12-2.61,4-5.42,6.05-8.12l7.14-9.58c2.07-2.78,3.91-5.77,5.85-8.64l3.63-5.37,3.74-6c1.14-1.83,2.39-3.64,3.42-5.55q3.72-6.91,7.43-13.82c3.45-7,6.84-13.92,10.13-21,3.19-6.82,5.89-13.88,8.64-20.88,2.28-6.22,4.46-12.44,6.35-18.8q.83-3.19,1.55-6.41c0-.24,0-.48,0-.72,0,.23,0,.46.05.68v0A38.43,38.43,0,0,1,370,10.33c1.12-3.44,3-7.55,6.29-9.43,7.65-4.33,11.51,8.13,11.88,13.38a88.77,88.77,0,0,1,.26,10.94A78.45,78.45,0,0,1,386.49,38c-1,4.28-2.1,8.51-3.31,12.72-2.19,7.54-4.86,15-7.72,22.26-2.68,6.82-5.45,13.57-8.31,20.31s-6.4,13.52-9.7,20.2c-3.46,7-7.18,13.83-10.88,20.7-1.76,3.27-3.95,6.39-5.91,9.55-1.79,2.89-3.7,5.7-5.61,8.52l-7.39,10.94c-1.7,2.5-3.61,4.86-5.41,7.28l-7.75,10.38c-1.89,2.55-4,5-6,7.42-18.91,23.32-39.25,45.4-59.81,67.27q-14,14.86-27.85,29.81c-9.67,10.36-19.37,20.71-29.5,30.63s-20.47,19.85-30.75,29.72c-9.08,8.72-17.82,17.72-26.41,26.93q-12.34,13.8-24.26,28c-7.77,9.23-15,19-21.93,28.84-4.18,6.4-8.24,12.86-12,19.55-4.1,7.35-8,14.79-11.86,22.27-3,6.35-6.08,12.67-8.91,19.11-3,6.88-5.87,13.79-8.66,20.77C43.14,520.78,40,530.47,37,540.28c-2.6,9.66-5.06,19.34-7.45,29.06C27.39,578,25.78,586.75,24,595.47q-1.2,9-2.38,18-.55,7.15-1.1,14.32c-.31,4-.37,8.11-.45,12.17-.08,9.49-.09,19,.38,28.47,0,.38.08.75.11,1.12a32.74,32.74,0,0,1,.88,7,35.47,35.47,0,0,1-2.69,14.92c-1.31,3-3.48,6.67-6.91,7.53a5.55,5.55,0,0,1-1.26.15C8,699.08,5.76,697.14,4.57,694.89Z"/><path d="M31.64,653.8A14,14,0,0,1,30,646.92c-.07-2.84-.06-5.72.11-8.56.21-3.4.56-6.76.94-10.14a89.79,89.79,0,0,1,1.92-10.3c.89-3.84,1.92-7.69,3.08-11.46l2.77-9c1.44-4.69,2.93-9.37,4.6-14,1.16-3.2,2.22-6.46,3.51-9.61l3.49-8.56c2.12-5.21,4.6-10.27,7-15.38s5-10.13,7.55-15.17a281,281,0,0,1,15.87-27.08q5.13-7.87,10.43-15.62c3-4.36,6.12-8.57,9.2-12.84,1.68-2.31,3.46-4.55,5.19-6.83,1.29-1.7,2.57-3.42,3.92-5.08,3.54-4.35,7-8.7,10.78-12.86l6.8-7.54c1.8-2,3.71-3.88,5.58-5.8,1.69-1.73,3.33-3.53,5.1-5.18l7.53-7c1.84-1.72,3.85-3.27,5.77-4.89,1.74-1.45,3.46-2.92,5.23-4.32q7.14-5.67,14.3-11.29c8.08-6.32,16.12-12.7,23.92-19.36,8.49-7.23,16.84-14.62,25.4-21.76,4.21-3.52,8.48-7,12.49-10.73a3.1,3.1,0,0,1,4.1-.39c1.62,1.18,2.33,3.44,2.7,5.31a19.64,19.64,0,0,1-.17,8.15,11.39,11.39,0,0,1-2.92,5.84c-3.92,3.68-8.09,7.06-12.21,10.49s-8.36,7.06-12.49,10.63c-8.11,7-16.23,14-24.52,20.78-8.52,7-17.32,13.64-25.95,20.49a250.25,250.25,0,0,0-23.53,21.09l-5.6,5.74-5.07,5.61c-1.55,1.72-3.18,3.39-4.64,5.18-3.44,4.22-6.93,8.39-10.22,12.72-3.62,4.76-7.19,9.53-10.69,14.37-3.33,4.59-6.52,9.25-9.71,13.93l-7.13,11c-2.48,3.8-4.71,7.78-7.06,11.66-1.11,1.83-2,3.79-3.06,5.66-.91,1.69-1.87,3.36-2.73,5.08l-5.84,11.62q-3.13,6.82-6.28,13.64c-1.68,3.65-3.08,7.45-4.59,11.19-4.08,11.26-7.9,22.6-11.11,34.14-.75,2.79-1.44,5.58-2,8.42-.39,2.32-.67,4.66-.93,7-.11,1.77-.21,3.54-.26,5.31,0,1,0,2,0,3A18.57,18.57,0,0,1,39.1,652c-.69,1.56-1.83,3.5-3.63,3.95a2.71,2.71,0,0,1-.68.09A4,4,0,0,1,31.64,653.8Z"/><path d="M145.73,499.12a11.27,11.27,0,0,1-2.21-6.16,19.73,19.73,0,0,1,.8-8.11,9.29,9.29,0,0,1,3.31-5l.64-.45c4.16-3.19,8-6.86,11.82-10.41,4.12-3.79,8.11-7.72,12.14-11.6,7.31-7,14.71-14.08,22.7-20.37,4.31-3.4,8.63-6.76,13-10.06,4.07-3.05,8.25-5.95,12.44-8.82,3.77-2.58,7.61-5.05,11.37-7.62,4.07-2.78,8.08-5.63,12.09-8.5,4.34-3.29,8.66-6.61,12.94-10s8.37-6.95,12.49-10.5c8.41-7.22,16.59-14.73,24.84-22.14,3.67-3.29,7.27-6.65,10.9-10,3.39-3.11,6.8-6.25,10.06-9.51l5.61-5.61c1.48-1.48,3-2.91,4.43-4.45,3.42-3.72,6.83-7.46,10.24-11.18,4.64-5.63,9.38-11.17,13.78-17,2.57-3.39,5.23-6.72,7.7-10.17l7-9.81q4.49-6.92,9-13.81c1-1.56,1.92-3.19,2.87-4.77L381.8,253c5.55-9.26,10.79-18.7,16-28.15,10.13-18.36,19.47-37.14,29-55.8,10.07-19.68,20.31-39.28,30.46-58.93q4.34-8.42,8.61-16.87c3.47-7,6.92-14,10.19-21.11S482.2,58.14,485,51c2.88-7.86,5.69-15.77,8.25-23.74.58-1.81,1.57-4,3.3-5a3.11,3.11,0,0,1,4,.88,11.24,11.24,0,0,1,2.21,6.15,19.86,19.86,0,0,1-.8,8.11c-3.45,10.75-7.29,21.36-11.39,31.88-3.82,9.78-8.34,19.35-13,28.76-9.79,19.79-20.1,39.31-30.22,58.93q-7.53,14.58-15,29.19c-5,9.82-9.93,19.66-15,29.4-5.45,10.39-10.92,20.75-16.59,31-5.25,9.5-10.75,18.85-16.33,28.16s-11.35,18.64-17.7,27.5c-3.42,4.76-6.89,9.45-10.43,14.13-1.42,1.87-2.78,3.81-4.27,5.62q-2.86,3.48-5.74,7l-5.74,7c-1.58,1.92-3.37,3.71-5.05,5.54q-3.35,3.64-6.66,7.28c-1.64,1.78-3.43,3.44-5.14,5.15-8.1,8.1-16.53,15.85-25,23.59-8.06,7.39-16.28,14.61-24.47,21.85s-16.62,14-25.28,20.53c-11.93,9-24.65,17-36.82,25.65A308.36,308.36,0,0,0,188,465.05c-3.89,3.59-7.77,7.2-11.59,10.87-4,3.86-8,7.78-12,11.55-4.7,4.32-9.33,8.85-14.57,12.52a2.38,2.38,0,0,1-1.41.45A3.66,3.66,0,0,1,145.73,499.12Z"/><path d="M185,211.82c-2-.59-3.13-2.58-3.63-4.5a21.37,21.37,0,0,1-.18-9.93c.52-2.59,3.05-8.45,6.54-6.55.49-.15,1-.33,1.44-.51a28.46,28.46,0,0,0,4.05-2.47c7.53-5.75,14.15-12.58,20.86-19.23,3.44-3.4,6.65-7,9.94-10.57q5.74-6.83,11.49-13.64c3-3.52,5.82-7.1,8.67-10.72,3.21-4.06,6.52-8.06,9.58-12.23,4-5.4,8.08-10.72,11.81-16.28A309.59,309.59,0,0,0,283.62,74c8.77-17.56,16.65-35.56,24.77-53.42.71-1.57,1.81-3.5,3.62-4s3,.79,3.84,2.12a14,14,0,0,1,1.67,6.89,18.27,18.27,0,0,1-1.41,7.83Q310.41,46,304.69,58.58c-2.59,5.65-5.07,11.36-7.78,17-3.53,7.3-7.08,14.6-10.9,21.75-3.68,6.9-7.73,13.6-12,20.16-2.22,3.44-4.5,6.82-6.92,10.12L260.21,137c-2.91,4-6,7.81-9,11.68s-5.93,7.61-9,11.31q-6.47,7.65-12.91,15.31c-1.57,1.86-3.31,3.58-5,5.36-1.9,2-3.73,4.16-5.71,6.11-4.53,4.49-9,9-13.72,13.33-2.5,2.31-5.11,4.5-7.8,6.59a30,30,0,0,1-8.38,4.8,7.57,7.57,0,0,1-2.49.51A4,4,0,0,1,185,211.82Z"/><path d="M266.8,336.22a4.74,4.74,0,0,1-1.48-2.91,10.81,10.81,0,0,1,.09-4.46,5.92,5.92,0,0,1,1.6-3.2c5.88-4.74,10.95-10.3,16-15.85,1.2-1.32,2.41-2.66,3.6-4,.58-.64,1.3-1.26,2.22-.9a3.5,3.5,0,0,1,1.72,2.38,10.31,10.31,0,0,1,.26,4.35,7.11,7.11,0,0,1-1.36,3.64c-3.27,3.64-6.53,7.29-9.92,10.82a113.12,113.12,0,0,1-10.52,9.9,2.13,2.13,0,0,1-1.32.55A1.55,1.55,0,0,1,266.8,336.22Z"/><path d="M494.42,157.64a10.8,10.8,0,0,1,.44-4.45,5.19,5.19,0,0,1,1.56-2.54,48.59,48.59,0,0,0,3-4.16c5.76-9.46,11-19.21,16.54-28.83q7.88-13.77,16-27.43c3.74-6.31,7.51-12.6,11.18-19q3-5.1,5.77-10.26c1.59-2.88,3-5.82,4.52-8.75.89-2,1.79-4.07,2.69-6.11.72-1.62,1.29-3.31,1.9-5v0c1.62-4.66,3.24-9.32,4.61-14.07.15-.56.29-1.13.43-1.7.34-1.46,1.77-5,3.84-3.42a4.74,4.74,0,0,1,1.48,2.91,10.65,10.65,0,0,1-.09,4.46,171.28,171.28,0,0,1-5.19,16.54,121.17,121.17,0,0,1-6.19,14.9c-2.42,4.81-4.86,9.61-7.56,14.28q-4.39,7.59-8.86,15.14-8.64,14.61-17.19,29.28c-5.31,9.1-10.4,18.32-15.62,27.46-1.31,2.31-2.65,4.58-4,6.84-.69,1.14-1.44,2.24-2.19,3.35-.48.71-1,1.41-1.47,2.11a7.69,7.69,0,0,1-2.1,2.19,1.74,1.74,0,0,1-.89.27C495.33,161.75,494.56,158.91,494.42,157.64Z"/><path d="M477.12,194.71a7.62,7.62,0,0,1-.91-3.77,10.17,10.17,0,0,1,.77-4.29c.56-1.3,1.12-2.6,1.67-3.91a18.84,18.84,0,0,1,2-4,2.47,2.47,0,0,1,1.29-1,1.81,1.81,0,0,1,1.75.67A5,5,0,0,1,484.8,181a10.33,10.33,0,0,1,.17,2.66,9.2,9.2,0,0,1-1.08,4l-.21.33c-.87,1.9-1.65,3.84-2.47,5.75a3.52,3.52,0,0,1-2,2.16,1.64,1.64,0,0,1-.37,0A2.19,2.19,0,0,1,477.12,194.71Z"/><path d="M101.3,712.28c-1.94-.11-3.16-2-3.86-3.6a18.55,18.55,0,0,1-1.2-8.22c.27-6.07.58-12.12,1.31-18.15a154.75,154.75,0,0,1,3.57-18c2.66-11,7.12-21.44,11.71-31.72,2.25-5,4.47-10.11,6.89-15.07,1.43-2.93,2.87-5.86,4.38-8.75,1.31-2.5,2.72-4.92,4.16-7.36,3-5.07,6.4-9.87,9.71-14.75,1.51-2.22,3.32-4.29,5-6.41,1.48-1.9,2.89-3.9,4.46-5.73,7.35-8.52,14.72-17,22.39-25.23,7.43-8,14.89-16,22.63-23.67s15.47-15.46,23.67-22.68,16.79-14.08,25.41-20.86l22.77-17.89c1.4-1.1,2.93-1.58,4.49-.44,1.77,1.3,2.55,3.78,2.95,5.82a21.51,21.51,0,0,1-.18,8.93c-.49,2.13-1.38,5-3.2,6.4q-15.1,11.86-30.19,23.75c-4.17,3.29-8.26,6.67-12.34,10.07s-8.17,7.21-12.18,10.9c-6.9,6.36-13.54,13-20.09,19.73q-10.65,10.9-21,22.08h0c-2.93,3.2-5.92,6.37-8.75,9.65l-10.5,12.16c-1.12,1.3-2.12,2.7-3.17,4.06l-5.85,7.53c-1.08,1.39-2,2.89-3,4.35l-4,5.9L133,622.19c-1.08,1.83-2,3.75-3,5.63q-8.3,17.13-15.4,34.77l-1.83,5.3c-.49,1.43-.86,2.91-1.26,4.38,0-.13.07-.26.11-.39-.54,2.2-1.08,4.41-1.61,6.61-.43,1.77-.74,3.59-1.06,5.39v0c-.21,1.69-.41,3.38-.62,5.07-.27,4.08-.48,8.15-.67,12.23a17.8,17.8,0,0,1-2.16,8c-.85,1.46-2.23,3.13-4.08,3.13Z"/><path d="M10.85,262.6c-1.94-.11-3.16-2-3.85-3.6a18,18,0,0,1-1.2-8.22c.58-9.81,7.07-17.84,12.87-25.3,3.21-4.13,6.58-8.14,9.94-12.15,6.82-8.15,13.63-16.32,20.55-24.39,7.79-9.09,15.73-18,23.93-26.77,3.24-3.45,6.57-6.87,10.12-10l7.08-6.27c2.22-2,4.64-3.73,6.94-5.58,3.14-2.52,6.48-4.74,9.79-7,3.12-2.16,6.32-4.19,9.53-6.22,7.43-4.7,14.87-9.39,22.35-14a3.37,3.37,0,0,1,4.41,1c1.58,1.79,2.17,4.42,2.42,6.73a21.52,21.52,0,0,1-.88,8.88c-.67,2-1.72,4.26-3.62,5.43q-10.08,6.22-20.09,12.58c-3,1.92-6.17,3.75-9.13,5.8l-9.32,6.47-8.32,6.68c-1.39,1.11-2.68,2.37-4,3.55l-4.67,4.13c-1.22,1.09-2.33,2.33-3.49,3.48s-2.56,2.49-3.78,3.79L71,189.47Q49.31,213.77,28.7,239c-3.64,4.44-7.13,9-10.44,13.64-.5.81-1,1.61-1.46,2.44l0,.08a15,15,0,0,1-1.65,4.32c-.85,1.46-2.23,3.13-4.08,3.13Z"/><path d="M5.78,330.82c-1.56-.09-2.55-1.61-3.1-2.9a13.81,13.81,0,0,1-1-6.61,34.06,34.06,0,0,1,.75-4.91,37.47,37.47,0,0,1,1.94-5.6,66,66,0,0,1,4.22-8.24c1.39-2.34,2.72-4.72,4.17-7,3.25-5.1,6.52-10.18,9.89-15.2s6.67-9.61,10.1-14.37c3.27-4.52,6.72-8.9,10.13-13.31,3-3.83,6-7.59,9.19-11.23,2-2.32,4-4.61,6.13-6.86s4-4.14,6.12-6.16c7.67-7.41,15.9-14.23,24.2-20.91,1.16-.94,2.33-1.86,3.5-2.78s2.36-1.27,3.61-.35c1.43,1,2,3,2.37,4.68a17.21,17.21,0,0,1-.14,7.18c-.39,1.72-1.11,4-2.57,5.15-6.23,4.91-12.41,9.9-18.36,15.16-2.85,2.53-5.73,5-8.48,7.7-1.61,1.55-3.32,3.05-4.84,4.69l-3.89,4.18c-3.42,3.95-6.76,7.93-10.06,12s-6.32,8.11-9.47,12.18-6.07,8.36-9.09,12.55c-2.67,3.69-5.11,7.56-7.64,11.35l.6-.89c-4.11,6.44-8.36,12.85-11.86,19.64-.5,1.05-1,2.1-1.41,3.17h0a0,0,0,0,1,0,0,13.67,13.67,0,0,1-1.6,5.17c-.68,1.17-1.79,2.52-3.28,2.52Z"/><path d="M232.64,557.65c-2.59-3.63-2.26-8.65-1-12.72a7.36,7.36,0,0,1,3-4.32,2.58,2.58,0,0,1,1.93-.26l.12,0c5.83-2.67,11.1-6.34,16.34-10,4.3-3.17,8.48-6.45,12.57-9.88s8.34-7.21,12.43-10.91c8-7.21,15.7-14.79,23.27-22.47q4.47-4.55,8.82-9.2A346.32,346.32,0,0,0,339,442.69c1.78-2.68,3.45-5.41,5-8.23.67-1.22,1.94-2.58,3.46-2.47s2.52,1.65,3.06,2.94a15.81,15.81,0,0,1-1,13.05c-5.3,9.62-12.12,18.32-19.06,26.8-6.77,8.29-13.95,16.28-21.38,24-15.32,15.83-31.2,31.28-48.57,44.87-4.61,3.62-9.48,6.91-14.39,10.11a57.37,57.37,0,0,1-7.16,4,10.23,10.23,0,0,1-3.93,1.22A2.84,2.84,0,0,1,232.64,557.65Z"/><path d="M306.61,294.3c-1.52-.89-2.35-2.8-2.84-4.4a17.34,17.34,0,0,1-.6-7.16c.21-1.73.68-4.12,2-5.39A138.21,138.21,0,0,0,321,258.86a473.93,473.93,0,0,0,31.44-50.51q7.78-14.94,14.8-30.24c.59-1.27,1.58-2.78,3.15-2.85s2.7,1.34,3.39,2.56a14.61,14.61,0,0,1,1.64,6.48,14.42,14.42,0,0,1-1.06,6.59c-4.53,9.82-9.23,19.57-14.24,29.15-5.24,10-10.92,19.76-16.9,29.35q-7.59,12.18-15.93,23.9a140.26,140.26,0,0,1-17.15,20.29,3.32,3.32,0,0,1-2.24,1.11A2.59,2.59,0,0,1,306.61,294.3Z"/><path d="M110.81,211a14.62,14.62,0,0,1-1.65-6.48,16,16,0,0,1,.65-5.55,8.3,8.3,0,0,1,2.79-4c1.2-1,2.49-1.89,3.75-2.81q4.23-3.09,8.57-6c3.41-2.3,5.58,3.14,6.1,5.58a17.25,17.25,0,0,1,0,7.19c-.34,1.6-1,3.66-2.44,4.63-2.27,1.54-4.52,3.08-6.73,4.69-1.78,1.29-3.68,2.53-5.38,4a3.12,3.12,0,0,1-2.32,1.42h-.11C112.58,213.57,111.48,212.19,110.81,211Z"/><path d="M56.34,684.83a14.71,14.71,0,0,1-1.64-6.48c-.28-6.26,1.07-12.37,2.46-18.44,1.3-5.72,3-11.38,4.74-17,.46-1.44,1.29-3.24,2.82-3.8s2.72.41,3.55,1.51a12.31,12.31,0,0,1,2.1,5.88,16.51,16.51,0,0,1-.52,7c-1.19,3.71-2.27,7.43-3.28,11.18-.84,3.38-1.61,6.76-2.29,10.17-.12.77-.23,1.53-.32,2.29,0,.2,0,.39,0,.59v.19a14.58,14.58,0,0,1-1.06,6.6c-.58,1.28-1.59,2.78-3.15,2.85h-.11C58.12,687.39,57,686,56.34,684.83Z"/><path d="M465.12,377.55c-1.58-.43-2.55-2.14-3.14-3.53a16.38,16.38,0,0,1-1.14-6.92,11.58,11.58,0,0,1,1.57-6c3.63-5.16,6.95-10.53,10.65-15.65,4.25-5.88,8.56-11.71,12.86-17.55,4.57-6.34,9.15-12.69,13.32-19.31,4.41-7,8.6-14.09,12.57-21.34a147,147,0,0,0,6.49-14.08c.51-1.29,1.64-2.79,3.15-2.85s2.7,1.34,3.39,2.56c2.17,3.84,2.16,9,.58,13.07-4.1,10.45-9.68,20.23-15.41,29.85-5.52,9.29-11.74,18.13-18.05,26.89-3.14,4.36-6.39,8.66-9.58,13l.58-.78c-2.63,3.64-5.26,7.28-7.79,11-2.24,3.28-4.36,6.65-6.64,9.9a3.64,3.64,0,0,1-2.76,1.9A3,3,0,0,1,465.12,377.55Z"/></g></g></svg>