<svg xmlns="http://www.w3.org/2000/svg" viewBox="0 0 537.99 957.83"><title>wave3</title><g id="Calque_2" data-name="Calque 2"><g id="Calque_1-2" data-name="Calque 1"><path d="M188.66,947.64a41.1,41.1,0,0,1,.66-21.78,91.13,91.13,0,0,1,6.94-15.93c3-5.65,6.44-11.07,9.71-16.55l-.09.16c3.53-6,7.12-12.09,10.22-18.37,1.8-3.65,3.79-7.27,5.43-11l4.35-9.92c3.4-8.66,6.77-17.31,9.79-26.11,3.08-9,6.19-18,9-27,.89-2.87,1.78-5.73,2.66-8.6,1.82-6,3.25-12,4.68-18.07.58-3,1.24-6,1.65-9,.43-3.18.88-6.35,1.31-9.53.38-3.65.84-7.31,1.05-11,.23-4,.48-8,.72-11.94.2-6.35.37-12.69.37-19s-.19-12.58-.39-18.87q-.44-6.26-.86-12.51c-.26-3.67-.74-7.34-1.14-11q-.72-5-1.46-10.06c-.43-3-1.09-6-1.69-8.94-1.39-5.77-2.85-11.5-4.45-17.23-4.55-14.19-9.93-28.08-14.51-42.27A35.36,35.36,0,0,1,231,579.15c.34-4.08,1.29-8.5,3.67-11.93,1.57-2.26,4-4.24,7-3.32s5.06,4.51,6,7.33c1.59,4.93,3.21,9.87,4.94,14.76,1.8,5.06,3.76,10.07,5.5,15.14,2,5.69,4,11.39,5.57,17.18s3.1,11.6,4.5,17.47c2.93,12.27,4.41,24.87,5.72,37.4.56,5.45.87,10.92,1.25,16.39.23,3.39.25,6.81.36,10.2.08,2.43.23,4.88.23,7.32,0,12.07-.15,24.11-.87,36.16-.36,6-.88,12-1.46,18-.29,3-.72,6.06-1.13,9.08-.34,2.48-.6,5-1.06,7.47-1.13,6.1-2.3,12.17-3.73,18.21-1.29,5.5-2.79,10.94-4.46,16.33l.75-2.42c-3.41,11-6.89,22-10.64,32.93s-7.79,22-12.07,32.85c-2,5-4.25,9.8-6.39,14.69-1,2.36-2.3,4.66-3.44,7-.89,1.78-1.74,3.58-2.69,5.33-5.07,9.36-10.39,18.56-15.84,27.7-2.26,3.94-4.55,7.85-6.47,12a26.83,26.83,0,0,1-2.6,10c-1.27,2.5-3.41,5.42-6.54,5.42C192.1,957.83,189.67,951.51,188.66,947.64Z"/><path d="M202.11,546.36c-2.87-1.86-4.61-5.85-5.29-9.06-.44-2.06-1.23-4.1-1.83-6.13q-1.25-4.23-2.5-8.46c-1.52-5.13-3.12-10.24-4.68-15.35s-3-10-4.43-15c-1.62-5.82-3.09-11.66-4.51-17.53s-2.49-11.65-3.52-17.5c-.57-3.27-1.07-6.54-1.47-9.84-.34-2.83-.85-5.69-1-8.54-.4-6.05-1-12.12-1-18.18,0-9.86-.06-19.65,1-29.47a158.42,158.42,0,0,1,3.35-20.1c1.31-5.56,2.94-11.08,4.68-16.52q2.22-7,4.46-14,4.53-14.14,9.14-28.25c.92-2.82,2.93-6.37,6-7.33s5.39,1.06,7,3.33c2.38,3.42,3.33,7.84,3.67,11.93a35.13,35.13,0,0,1-1.67,13.92c-4.45,13.65-8.8,27.33-13.21,41-1.41,4.81-2.82,9.61-3.94,14.49-.39,2-.71,4.05-1,6.09-.4,3.54-.68,7.1-.87,10.65-.14,5,0,10,0,15,.23,3.66.48,7.31.71,11s.86,7.36,1.3,11c-.11-.94-.23-1.89-.35-2.84,1,5.8,2.15,11.57,3.32,17.34,2.53,10.41,5.32,20.71,8.46,30.95s6.39,20.64,9.36,31c0,.09.06.22.08.32a37.87,37.87,0,0,1,.56,14.35c-.62,3.68-1.82,7.84-4.52,10.58a6.16,6.16,0,0,1-4.32,2A5.24,5.24,0,0,1,202.11,546.36Z"/><path d="M198.17,693.87a14.62,14.62,0,0,1-2.12-6.43l0,.26c-.55-4.4-1.35-8.75-2.22-13.1-.69-3-1.41-6-2.18-9-.64-2.46-1.39-4.89-2.14-7.32l-2.42-6.66c-.65-1.79-1.45-3.53-2.2-5.28-2-4.29-4-8.54-6.14-12.77s-4.4-8.19-6.67-12.25c-2.47-4.18-4.94-8.36-7.61-12.41q-4.86-7.35-10-14.47c-2.94-4.05-6-8-8.85-12.11-1.68-2.41-3.33-4.81-4.91-7.28-1.7-2.64-3.26-5.35-4.83-8.07a131.45,131.45,0,0,1-7-14.55c-2.27-5.31-4.32-10.68-6.25-16.12-1.85-5.18-3.49-10.48-4.92-15.79a142.84,142.84,0,0,1-3.81-17.45,68.3,68.3,0,0,1-.83-9.57c0-2.84.16-5.65.39-8.48a15.07,15.07,0,0,1,2.23-7.25c1-1.38,2.46-2.59,4.24-2s3,2.75,3.62,4.46a19.81,19.81,0,0,1,1,8.47c-.09,1.1-.16,2.2-.23,3.3,0,.4,0,.81,0,1.22l.12,1.73c.33,2.26.71,4.49,1.13,6.73,1.19,5.08,2.57,10.09,4.06,15.09q2,6,4.09,11.93c1.31,3.68,2.86,7.28,4.4,10.88,1.26,2.69,2.52,5.38,3.89,8,1.24,2.4,2.57,4.74,3.92,7.09,2.94,4.56,6,9,9.18,13.42,3.05,4.19,6.21,8.31,9.18,12.56,3.16,4.55,6.28,9.12,9.22,13.81,3.17,5.06,6.16,10.22,9.08,15.42,2.59,4.62,4.94,9.36,7.31,14.1,1.27,2.56,2.48,5.2,3.58,7.84,1,2.36,2.07,4.7,2.94,7.1,2.07,5.68,4,11.38,5.49,17.22s2.75,11.54,3.81,17.39c.56,3.11.95,6.25,1.34,9.39a18.78,18.78,0,0,1-1,8.47c-.64,1.72-1.74,3.86-3.63,4.46a2.84,2.84,0,0,1-.89.14A4.4,4.4,0,0,1,198.17,693.87Z"/><path d="M118.88,390c-1.91-.1-3.18-1.7-4-3.3-2.8-5.58-1.68-12-.75-17.89.42-2.62.92-5.22,1.39-7.83,1-5.54,2-11.08,3.26-16.57s2.4-10.83,3.88-16.17c1.74-6.27,3.68-12.45,5.64-18.65,1.64-5.16,3.46-10.26,5.22-15.37,1.53-4.46,3.13-8.92,4.92-13.27,2.28-5.55,4.52-11.11,7-16.56s5-10.85,7.71-16.22c5.11-10.25,11.24-20,17.24-29.73,1.23-2,2.56-4,3.84-5.94s2.52-4,3.86-5.9c3.13-4.47,6.16-9,9.41-13.4,6.6-8.94,13.1-18,20.12-26.62l11.68-14.32c3.82-4.71,7.87-9.24,11.8-13.85q20.42-23.94,42.12-46.78c4-4.16,7.86-8.38,11.88-12.48,3.68-3.75,7.27-7.61,11.08-11.22l13.32-12.62C314,51,318.72,47,323.31,42.88,331,36,338.74,29.26,346.55,22.56c3.87-3.32,7.75-6.62,11.59-10A103.67,103.67,0,0,0,369.82,1.22a3.28,3.28,0,0,1,4.36-.68c1.8,1.17,2.7,3.53,3.22,5.51,1.28,4.87.94,11.16-2.41,15.16a110,110,0,0,1-11.68,11.37c-3.93,3.48-8,6.85-11.94,10.27-7.95,6.82-15.86,13.69-23.65,20.7-4.37,3.94-8.85,7.78-13.13,11.83l-13.74,13c-3.73,3.54-7.24,7.36-10.85,11-4.19,4.27-8.25,8.67-12.37,13-14.51,15.25-28.56,31-42.22,47-3.76,4.4-7.61,8.74-11.27,13.23q-5.79,7.11-11.6,14.24c-13.12,17.18-26.1,34.44-37.44,52.87q-2.78,4.5-5.54,9l-5.15,9.07c-1.48,2.61-2.81,5.27-4.15,8-2.95,5.9-5.68,11.89-8.4,17.9-3.21,7.78-6.4,15.56-9.14,23.52-1.5,4.35-3.1,8.67-4.49,13l-3.78,11.89c-1,3.55-2,7.08-2.89,10.66-1,4-1.88,8.05-2.79,12.09-1.53,7.47-3,15-4.16,22.51a24.27,24.27,0,0,1,0,3.08,14.83,14.83,0,0,1-2.23,7.25c-.77,1.08-1.87,2.22-3.3,2.22Z"/><path d="M194.58,106a9.55,9.55,0,0,1-3.22-5.51,21,21,0,0,1,0-10.34c1.07-4.25,4-7.93,6.76-11.28,1.8-2.23,3.61-4.43,5.48-6.6,3.58-4.15,7.27-8.21,11-12.26,7.23-7.89,14.56-15.69,22.09-23.3s15.1-15.15,22.71-22.67a3.33,3.33,0,0,1,4.36-.68c1.81,1.17,2.7,3.53,3.22,5.51a21,21,0,0,1,.34,8.72c-.37,2.22-1.09,4.81-2.75,6.44q-11.76,11.63-23.41,23.38c-7.84,7.93-15.44,16.09-23,24.31-5,5.5-9.93,11.09-14.66,16.86-.94,1.3-1.92,2.57-2.79,3.92a8.08,8.08,0,0,1-.37.79c-.77,1.52-2.07,3.29-4,3.29A3.18,3.18,0,0,1,194.58,106Z"/><path d="M166.62,143.55c-1.47-.46-2.32-2.13-2.82-3.46a14.82,14.82,0,0,1,.95-12.23c1.17-2,2.35-4,3.55-6,.52-.88,1.06-1.76,1.63-2.62.9-1.37,2.1-3.41,4-3.41,1.48,0,2.49,1.38,3.09,2.56a15.61,15.61,0,0,1,0,12.38,6.09,6.09,0,0,1-1.46,1.94c-.92,1.28-1.7,2.67-2.51,4-1,1.75-2.07,3.52-3.11,5.28a3.21,3.21,0,0,1-2.61,1.68A2.3,2.3,0,0,1,166.62,143.55Z"/><path d="M155.8,840.26c-1.39-.91-2.1-2.75-2.5-4.28a15.27,15.27,0,0,1-.26-6.79c1.43-6.82,2.79-13.65,4.14-20.48s2.76-13.7,3.67-20.63c.22-1.88.39-3.76.49-5.65.19-5.67,0-11.34,0-17-.21-3.74-.45-7.48-.65-11.22-.12-2-.42-4.09-.63-6.13-.18-1.8-.37-3.6-.55-5.4-.3-2-.61-3.95-.91-5.93s-.53-4.08-.94-6.08c-.82-4-1.69-8-2.52-12q-1.7-6.46-3.4-12.93c-1.66-5.26-3.28-10.52-5.18-15.7-1-2.81-2-5.69-3.12-8.46l-3.66-8.82c-1.05-2.3-2-4.62-3.15-6.87l-2.15-4.35c-.7-1.43-1.54-2.8-2.12-4.29a14.21,14.21,0,0,1-.85-5.17,13.83,13.83,0,0,1,1.28-6.18,4.52,4.52,0,0,1,2.39-2.45,2.29,2.29,0,0,1,2.16.41h0a5.07,5.07,0,0,1,2.07,2.88,251.41,251.41,0,0,1,13,29.76c.89,2.45,1.9,4.88,2.69,7.36q1.5,4.77,3,9.53c1.76,5.54,3.16,11.18,4.64,16.81.66,2.52,1.1,5.12,1.63,7.66s1.18,5,1.56,7.53c.87,5.68,1.83,11.34,2.41,17.06.3,3,.61,6,.91,9s.36,6.09.53,9.12c.36,6,.43,12,.36,18a129.7,129.7,0,0,1-2.27,23.18q-1.12,5.81-2.24,11.59-2.08,10.74-4.33,21.43a9.77,9.77,0,0,1-2.14,5,2.93,2.93,0,0,1-2,.95A2.48,2.48,0,0,1,155.8,840.26Z"/><path d="M260.39,478c-1.53-.48-2.51-2.26-3-3.67-3.84-11.32-7.55-22.65-10.33-34.29-.67-2.82-1.31-5.66-1.81-8.52s-.93-5.93-1.31-8.91c-.74-5.86-.94-11.77-1.24-17.65-.27-5.44-.31-10.9-.21-16.35.06-2.92,0-5.86.24-8.78.22-3.38.43-6.77.65-10.15.17-2.62.55-5.25.83-7.86s.57-5.14,1-7.7l1.47-9.58c.45-2.87,1.13-5.72,1.7-8.57,1.16-5.89,2.63-11.69,4-17.52.55-2.25,1.22-4.48,1.85-6.71s1.25-4.61,1.95-6.89c.88-2.89,1.77-5.78,2.65-8.67,1-3.23,2.19-6.4,3.3-9.59,1.84-5.28,4-10.44,6.09-15.64s4.61-10.57,6.92-15.84c2.2-5,4.63-9.91,6.95-14.85,4.5-9.61,9.48-19,14.39-28.42,1.34-2.57,2.85-5.05,4.27-7.57,1.21-2.13,2.37-4.3,3.66-6.38,2.87-4.66,5.68-9.37,8.73-13.91A313.38,313.38,0,0,1,333,157c5.5-6.58,11.09-13.08,17-19.32s12-12.62,17.94-19a2.71,2.71,0,0,1,3.58-.56c1.48,1,2.23,2.9,2.65,4.52a17.22,17.22,0,0,1,.28,7.18,10.23,10.23,0,0,1-2.26,5.29c-6.1,6.53-12.27,13-18.4,19.48-5.85,6.19-11.37,12.65-16.82,19.18-4.68,6-9.43,11.95-13.66,18.26-2.25,3.36-4.62,6.66-6.74,10.09q-3.36,5.46-6.73,10.9c-2.38,4.17-4.85,8.3-7.07,12.56-2.51,4.82-5.1,9.61-7.51,14.49-4.83,9.81-9.74,19.6-14.14,29.61l-5.28,12c-1.7,4.26-3.38,8.53-5.08,12.79-1.48,3.72-2.65,7.58-4,11.35-1.7,5.56-3.33,11.12-4.89,16.72-1.53,5.45-2.79,11-4.15,16.46q-1.12,5.67-2.24,11.34c-.35,1.8-.56,3.64-.84,5.45l-.9,5.9c-.38,3.51-.76,7-1.15,10.53-.19,1.71-.22,3.44-.33,5.16l-.36,5.46c-.07,3.31-.12,6.63-.19,9.93s.11,6.39.19,9.58c.27,5.2.59,10.38,1,15.57.22,1.83.44,3.66.76,5.48.37,2.11.78,4.21,1.21,6.31,1.41,5.85,3,11.62,4.63,17.4,1.75,5.45,3.54,10.87,5.38,16.3a17.11,17.11,0,0,1,.83,7,12.29,12.29,0,0,1-1.83,6,3.59,3.59,0,0,1-2.75,1.78A2.4,2.4,0,0,1,260.39,478Z"/><path d="M292.93,549.55c-2.25-4.89-4.58-9.74-6.94-14.58-2.1-4.31-4.4-8.49-6.72-12.68s-4.88-8.11-7.32-12.17c-1.31-2.16-2.65-4.35-3.74-6.63a17.55,17.55,0,0,1-1.1-11.81c.49-1.9,1.75-5.06,4.19-5.06,1.57,0,2.64,1.46,3.27,2.71a11.25,11.25,0,0,1,.91,2.51c.48.89,1,1.76,1.5,2.63h0c4.07,6.75,8.14,13.47,12,20.36,2,3.55,3.68,7.25,5.46,10.89s3.4,7.15,5.06,10.74a15.83,15.83,0,0,1,0,13.08c-.63,1.25-1.71,2.71-3.27,2.71S293.51,550.81,292.93,549.55Z"/><path d="M327.91,283A29.19,29.19,0,0,1,325.2,270a54.76,54.76,0,0,1,2.45-14.58c.83-3,1.75-6,2.79-9,2-5.67,4.05-11.38,6.6-16.84q2-4.35,4.06-8.7c1.2-2.58,2.73-5.05,4.09-7.56,2.82-5.21,6.08-10.15,9.23-15.17,1.49-2.36,3.37-4.55,5-6.8s3.12-4.28,4.85-6.29c3.61-4.2,7.14-8.47,11-12.47,8-8.37,16.29-16.48,24.75-24.42,15.84-14.87,32.25-29.11,48.36-43.68A590.79,590.79,0,0,0,495,57.94c1.37-1.55,2.67-3.18,4-4.78A216.24,216.24,0,0,0,512.8,33.4c2-3.72,3.84-7.5,5.55-11.35,1-2.54,2-5.09,2.92-7.69,1-2.82,2.9-6.36,6-7.33,2.92-.92,5.39,1.06,7,3.33,2.38,3.42,3.33,7.84,3.67,11.93a34.24,34.24,0,0,1-1.67,13.92,148.24,148.24,0,0,1-16.17,33c-6.27,9.63-13.78,18.45-21.37,27.05-6.85,7.75-14.22,15.15-21.68,22.31q-12.33,11.82-25,23.24c-16.47,14.9-33.13,29.56-49.32,44.77-5,4.67-9.84,9.49-14.57,14.41-2.54,2.64-5.17,5.21-7.56,8-2.56,3-5.11,6-7.68,8.92q-3.7,5-7.42,10c-1.15,1.55-2.09,3.3-3.12,4.93l-3.06,4.86-5,9.13c-1.49,2.75-2.71,5.7-4,8.55-2.2,5.47-4.25,10.94-6.07,16.54-.29,1.06-.57,2.11-.85,3.17A25.12,25.12,0,0,1,341,283c-1.26,2.49-3.41,5.42-6.54,5.42S329.18,285.52,327.91,283Z"/><path d="M313,947.27c-1.8-1.17-2.7-3.54-3.22-5.51a21.24,21.24,0,0,1-.34-8.73,12.23,12.23,0,0,1,2.75-6.44c6.29-6.5,12-13.63,17.73-20.6l4.45-5.84c1.24-1.62,2.32-3.34,3.46-5,2.55-3.8,4.94-7.68,7.33-11.59a623.07,623.07,0,0,0,29.15-56.88c1.63-3.69,3.28-7.38,4.9-11.08q3.25-8.26,6.54-16.52c1-2.61,1.81-5.36,2.71-8l2.62-7.78q2.14-7.53,4.24-15.1c.69-2.53,1.14-5.16,1.71-7.72.52-2.32,1-4.64,1.55-7q1.29-7.76,2.59-15.52c.55-4.63,1.07-9.27,1.61-13.91.27-2.26.35-4.56.52-6.83.18-2.55.36-5.1.56-7.65l.36-9.59c.13-3.23,0-6.48.06-9.71.06-6.87-.21-13.75-.39-20.62-.39-7.75-.91-15.48-1.65-23.21-.33-2.27-.67-4.54-1-6.8a15.34,15.34,0,0,1-1-3.56c-.54-4.16-1.18-8.29-1.89-12.42-.68-3.08-1.36-6.16-2.06-9.23-1.42-6.21-3.59-13-1.71-19.35.65-2.16,1.66-5.17,4.09-5.93,2.8-.89,4.65,2.3,5.45,4.45a73.35,73.35,0,0,1,2.66,11q.83,4,1.57,8c.24,1.33.48,2.66.71,4,1.07,5.08,2,10.18,2.82,15.3a293.63,293.63,0,0,1,3.17,34c.55,11.25.54,22.53.48,33.79,0,3-.22,5.93-.33,8.89-.1,2.53-.22,5-.4,7.58-.42,5.64-.83,11.25-1.49,16.86-.38,3.31-.77,6.62-1.15,9.94-.31,2.63-.79,5.23-1.22,7.84q-.82,4.93-1.64,9.85c-.44,2.58-1.12,5.15-1.68,7.7l-2.19,9.82c-.47,2.14-1.17,4.24-1.77,6.35L401,794.1c-.67,2.37-1.53,4.69-2.32,7-1.7,5-3.34,10.08-5.3,15-2.12,5.36-4.14,10.77-6.47,16s-4.44,10.43-6.88,15.53-4.83,10.5-7.47,15.63c-5,9.65-9.83,19.36-15.21,28.78-3.22,5.66-6.51,11.24-9.92,16.79-2.78,4.51-5.91,8.79-9.11,13-3.34,4.38-6.91,8.57-10.45,12.79-3.39,4-6.78,8.08-10.44,11.86a3.71,3.71,0,0,1-2.62,1.23A3.2,3.2,0,0,1,313,947.27Z"/><path d="M352.3,773.22c-1.64-1.67-2.38-4.2-2.75-6.44a22.33,22.33,0,0,1,.34-8.73c.1-.43.2-.87.29-1.31,1.18-5.8,2.17-11.64,3-17.51q.48-4.93.82-9.88c0-3.3,0-6.58-.07-9.87q-.54-9.19-1.43-18.33c-.69-5.19-1.5-10.32-2.52-15.46-.37-1.58-.73-3.17-1.16-4.75-.33-1.24-.72-2.49-1-3.75a20.16,20.16,0,0,1-.67-5.39h0a19.24,19.24,0,0,1,1.08-6.65c.64-1.71,1.74-3.86,3.63-4.46,3.3-1,5.15,3,5.92,6h0a0,0,0,0,0,0,0c0,.15.07.29.1.44.54,2.13,1.18,4.25,1.69,6.39.71,3,1.42,6,1.93,9.05,1,5.79,1.8,11.58,2.36,17.42.53,5.5.91,11,1.23,16.51a153.29,153.29,0,0,1-.16,19.41,207.35,207.35,0,0,1-5,32.48c-.44,2-1.45,4.36-3.22,5.5a3.17,3.17,0,0,1-1.74.54A3.72,3.72,0,0,1,352.3,773.22Z"/><path d="M326.71,838.89a14.86,14.86,0,0,1-2.23-7.25,20.78,20.78,0,0,1,1-8.47c.65-1.9,1.27-3.8,1.88-5.7q1.49-5,2.71-10c.27-1.38.53-2.77.76-4.15,0-.12,0-.24,0-.36a14.36,14.36,0,0,1,2.23-7.26c1-1.37,2.46-2.58,4.23-2s3,2.74,3.63,4.46a21.13,21.13,0,0,1,1,8.47,53.63,53.63,0,0,1-1,7c-.5,2.72-1.15,5.42-1.85,8.1-1.31,5-2.88,9.91-4.54,14.79-.59,1.71-1.77,3.87-3.63,4.45a2.82,2.82,0,0,1-.89.15A4.38,4.38,0,0,1,326.71,838.89Z"/><path d="M326.69,358.51c-1.4-.9-2.11-2.75-2.51-4.28-3.25-12.66-5.75-25.6-5.75-38.71a13.9,13.9,0,0,1,1.28-6.19c.6-1.18,1.62-2.56,3.1-2.56s2.49,1.38,3.09,2.56a13.9,13.9,0,0,1,1.28,6.19c0,1.2,0,2.4.05,3.61.18,2.33.41,4.66.67,7,.43,3.17,1,6.31,1.58,9.44.77,3.56,1.57,7.09,2.48,10.62a16.49,16.49,0,0,1,.26,6.78,9.27,9.27,0,0,1-2.14,5,2.91,2.91,0,0,1-2,.95A2.45,2.45,0,0,1,326.69,358.51Z"/><path d="M66.43,575a11,11,0,0,1-2.08-5.71c-.46-1-.92-2-1.37-2.92q-1.59-3.45-3.06-7C57.67,554,55.74,548.48,53.86,543c-1-2.87-1.73-5.84-2.59-8.75-.6-2-1.12-4.06-1.64-6.11-1.55-6.07-3-12.14-4.39-18.25-1.11-4.95-2.09-9.92-3.05-14.91-.89-4.62-1.38-9.33-2-14-.71-5-1.06-10-1.55-15.05-.27-2.75-.27-5.55-.39-8.3l-.39-8.13c0,.54.06,1.08.08,1.62-.14-2.9-.07-5.82-.07-8.72,0-3.37,0-6.75,0-10.11,0-2.37.16-4.74.26-7.1q.22-5.68.47-11.37c.22-5.42.83-10.83,1.3-16.23.5-5.77,1.34-11.46,2.15-17.19,1.57-11.08,4-22,6.41-32.94a240.56,240.56,0,0,1,9.64-32c4-10.69,8.8-21,13.74-31.29.75-1.55,1.85-3.47,3.68-3.91s3,.82,3.81,2.17a14,14,0,0,1,1.58,6.9,17.93,17.93,0,0,1-1.51,7.82c-4.15,8.65-8.14,17.34-11.78,26.21C65.41,329.18,63.39,335,61.51,341q-1.74,6.3-3.32,12.64c-1,4.08-1.86,8.21-2.78,12.32l-1.29,6.8c-.43,2.25-1,4.5-1.29,6.76-.73,5.15-1.48,10.29-2.19,15.44-.48,5.81-1,11.61-1.5,17.42-.26,3.07-.26,6.18-.38,9.25l-.33,7.95c0,5.74,0,11.49,0,17.24,0-.55,0-1.09-.08-1.63.26,5.13.49,10.26.73,15.39.13,2,.41,3.94.61,5.9.22,2.28.45,4.55.67,6.83q.64,4.49,1.27,9c.38,2.71.91,5.38,1.43,8.06,1.09,5.68,2.36,11.32,3.63,17,1.24,4.84,2.34,9.72,3.75,14.5l2.76,9.32c.63,2.12,1.41,4.21,2.15,6.31,0-.09-.06-.18-.09-.27,1.55,4,3.1,8,4.85,11.86.84,1.89,1.7,3.76,2.57,5.64,1.4,3,2.95,6.06,3.2,9.44a19.53,19.53,0,0,1-1.43,9.44c-.89,2-2.23,3.84-4.54,4h-.13C68.3,577.5,67.26,576,66.43,575Z"/><path d="M4.54,405.68c-1.77-.13-2.87-1.87-3.48-3.34a16.54,16.54,0,0,1-1-7.51c.81-11.07,1.18-22.21,3.49-33.11.56-2.68,1.07-5.39,1.8-8,.8-2.9,1.49-5.85,2.5-8.69,2-5.61,4-11.2,6.18-16.76q4.13-10.67,8.3-21.31c-.17.45-.34.89-.52,1.34.77-2,1.56-4,2.34-5.94.62-1.55,1.93-3.49,3.68-3.91s3,.83,3.81,2.17a14,14,0,0,1,1.58,6.91,20.35,20.35,0,0,1-1.51,7.82l-1.64,4.14q-1.14,2.93-2.29,5.84-3,7.77-6,15.53c-2,5.08-3.77,10.21-5.59,15.34-.59,2.13-1.18,4.27-1.76,6.4-.54,1.92-.89,3.92-1.27,5.89-.34,2.18-.67,4.37-1,6.55-.35,3.5-.68,7-.94,10.52-.25,3.35-.39,6.71-.64,10.07a16.6,16.6,0,0,1-2.06,7.29c-.79,1.31-2.06,2.81-3.73,2.81Z"/><path d="M459.15,667a13.5,13.5,0,0,1-1.59-6.91c.12-7.79.13-15.58.08-23.37,0-3.77.1-7.56-.06-11.33-.15-3.37-.29-6.74-.44-10.12l-1.08-9c-.65-3.55-1.27-7.11-1.92-10.67-.41-1.66-.81-3.31-1.22-5-.5-2-.88-4.14-1.5-6.13-1.25-4-2.52-7.94-3.77-11.92-1.66-4.35-3.18-8.78-5-13.06-2.16-5-4.28-10-6.59-15-4.63-9.91-9.38-19.76-14.17-29.6l-3.24-6.53c-1.65-3.34-3.73-6.64-4.47-10.32A17.92,17.92,0,0,1,416,485.94a5.46,5.46,0,0,1,3.06-2.73,3.14,3.14,0,0,1,3.18,1.27,33.46,33.46,0,0,1,1.91,3,10.77,10.77,0,0,1,1.15,3c4.54,9.05,8.95,18.16,13.34,27.27,2.44,5.09,4.81,10.2,7.2,15.31,1,2.09,1.84,4.23,2.76,6.35,1,2.31,2.09,4.59,3,6.94,2,5.34,4.2,10.64,5.93,16.08l3.15,10c.76,2.42,1.24,5,1.84,7.42s1.33,5.12,1.8,7.73c.6,3.3,1.19,6.61,1.79,9.91.55,3,.78,6.17,1.15,9.23.32,2.69.46,5.36.57,8.06.62,14.2.55,28.46.33,42.67a19.42,19.42,0,0,1-1.51,7.82c-.71,1.55-1.87,3.47-3.68,3.9a2.39,2.39,0,0,1-.64.08A4,4,0,0,1,459.15,667Z"/><path d="M86.25,616.75q-3.09-4.56-6.1-9.18c-.86-1.32-1.68-2.66-2.5-4a40.77,40.77,0,0,1-2.44-4.26c-2.29-5.11-2.57-11.89,0-17,.82-1.62,2.22-3.52,4.25-3.52s3.5,1.88,4.24,3.52a7.77,7.77,0,0,0,.48.9c2.86,4.83,6,9.49,9.15,14.15a16.22,16.22,0,0,1,2.38,7.74,21.14,21.14,0,0,1-1.08,9c-.68,1.83-1.85,4.12-3.87,4.76a3.17,3.17,0,0,1-.94.15A4.59,4.59,0,0,1,86.25,616.75Z"/><path d="M207.93,291c-1.75-1.78-2.53-4.48-2.93-6.87a21.51,21.51,0,0,1,.36-9.31,46,46,0,0,1,1.73-4.81c.75-1.83,1.8-4.1,3.87-4.76,1.89-.59,3.49.7,4.51,2.16a15.9,15.9,0,0,1,2.38,7.74,20.06,20.06,0,0,1-1.08,9c-.35.89-.74,1.77-1.05,2.68-.6,1.85-1.48,3.79-3.13,4.86a3.4,3.4,0,0,1-1.86.58A4,4,0,0,1,207.93,291Z"/><path d="M387.15,577.88c-2.68-.89-3.61-4-4.43-6.41-.4-1.18-.81-2.36-1.22-3.54a22,22,0,0,1-1.08-9,16,16,0,0,1,2.38-7.74c1-1.47,2.63-2.76,4.52-2.16s3.23,2.93,3.87,4.75c.49,1.42.91,2.9,1.43,4.32.13.3.24.59.35.88a21.28,21.28,0,0,1,1.08,9,16,16,0,0,1-2.38,7.74,4.68,4.68,0,0,1-3.56,2.31A3,3,0,0,1,387.15,577.88Z"/></g></g></svg>